<mxfile host="drawio-plugin" modified="2025-03-10T13:58:29.769Z" agent="5.0 (Windows NT 6.2; Win64; x64) AppleWebKit/537.36 (KHTML, like Gecko) Chrome/98.0.4758.102 Safari/537.36" etag="IKtLt80U7Z7hK7lAU-yq" version="20.5.3" type="embed" pages="4"><diagram id="23iRSUPoRavnBvh4doch" name="C1"><mxGraphModel dx="1172" dy="623" grid="0" gridSize="10" guides="1" tooltips="1" connect="1" arrows="1" fold="1" page="0" pageScale="1" pageWidth="827" pageHeight="1169" math="0" shadow="0"><root><mxCell id="0"/><mxCell id="1" parent="0"/><mxCell id="HXpEyz4CseGD96l01L6i-7" style="edgeStyle=orthogonalEdgeStyle;rounded=0;orthogonalLoop=1;jettySize=auto;html=1;" parent="1" source="2" target="1cw-LF3O0UJZNu12PKwH-7" edge="1"><mxGeometry relative="1" as="geometry"/></mxCell><object placeholders="1" c4Name="Витрина данных" c4Type="Software System" c4Description="Формирование  отчётов по любым срезам" label="&lt;font style=&quot;font-size: 16px&quot;&gt;&lt;b&gt;%c4Name%&lt;/b&gt;&lt;/font&gt;&lt;div&gt;[%c4Type%]&lt;/div&gt;&lt;br&gt;&lt;div&gt;&lt;font style=&quot;font-size: 11px&quot;&gt;&lt;font color=&quot;#cccccc&quot;&gt;%c4Description%&lt;/font&gt;&lt;/div&gt;" id="2"><mxCell style="rounded=1;whiteSpace=wrap;html=1;labelBackgroundColor=none;fillColor=#1061B0;fontColor=#ffffff;align=center;arcSize=10;strokeColor=#0D5091;metaEdit=1;resizable=0;points=[[0.25,0,0],[0.5,0,0],[0.75,0,0],[1,0.25,0],[1,0.5,0],[1,0.75,0],[0.75,1,0],[0.5,1,0],[0.25,1,0],[0,0.75,0],[0,0.5,0],[0,0.25,0]];" parent="1" vertex="1"><mxGeometry x="1190" y="300" width="240" height="120" as="geometry"/></mxCell></object><mxCell id="jWziOCZxQKqEYmVa4LU6-7" style="edgeStyle=orthogonalEdgeStyle;rounded=0;orthogonalLoop=1;jettySize=auto;html=1;entryX=0.25;entryY=0;entryDx=0;entryDy=0;entryPerimeter=0;" parent="1" source="3" target="6" edge="1"><mxGeometry relative="1" as="geometry"/></mxCell><object placeholders="1" c4Name="Финтех сервисы" c4Type="Software System" c4Description="Система финансовых сервисов на Golang и Java" label="&lt;font style=&quot;font-size: 16px&quot;&gt;&lt;b&gt;%c4Name%&lt;/b&gt;&lt;/font&gt;&lt;div&gt;[%c4Type%]&lt;/div&gt;&lt;br&gt;&lt;div&gt;&lt;font style=&quot;font-size: 11px&quot;&gt;&lt;font color=&quot;#cccccc&quot;&gt;%c4Description%&lt;/font&gt;&lt;/div&gt;" id="3"><mxCell style="rounded=1;whiteSpace=wrap;html=1;labelBackgroundColor=none;fillColor=#1061B0;fontColor=#ffffff;align=center;arcSize=10;strokeColor=#0D5091;metaEdit=1;resizable=0;points=[[0.25,0,0],[0.5,0,0],[0.75,0,0],[1,0.25,0],[1,0.5,0],[1,0.75,0],[0.75,1,0],[0.5,1,0],[0.25,1,0],[0,0.75,0],[0,0.5,0],[0,0.25,0]];" parent="1" vertex="1"><mxGeometry x="50" y="130" width="240" height="120" as="geometry"/></mxCell></object><mxCell id="jWziOCZxQKqEYmVa4LU6-8" style="edgeStyle=orthogonalEdgeStyle;rounded=0;orthogonalLoop=1;jettySize=auto;html=1;" parent="1" source="5" target="6" edge="1"><mxGeometry relative="1" as="geometry"/></mxCell><object placeholders="1" c4Name="ИИ сервисы" c4Type="Software System" c4Description="ИИ-сервисы для работы с медицинскими данными" label="&lt;font style=&quot;font-size: 16px&quot;&gt;&lt;b&gt;%c4Name%&lt;/b&gt;&lt;/font&gt;&lt;div&gt;[%c4Type%]&lt;/div&gt;&lt;br&gt;&lt;div&gt;&lt;font style=&quot;font-size: 11px&quot;&gt;&lt;font color=&quot;#cccccc&quot;&gt;%c4Description%&lt;/font&gt;&lt;/div&gt;" id="5"><mxCell style="rounded=1;whiteSpace=wrap;html=1;labelBackgroundColor=none;fillColor=#1061B0;fontColor=#ffffff;align=center;arcSize=10;strokeColor=#0D5091;metaEdit=1;resizable=0;points=[[0.25,0,0],[0.5,0,0],[0.75,0,0],[1,0.25,0],[1,0.5,0],[1,0.75,0],[0.75,1,0],[0.5,1,0],[0.25,1,0],[0,0.75,0],[0,0.5,0],[0,0.25,0]];" parent="1" vertex="1"><mxGeometry x="50" y="300" width="240" height="120" as="geometry"/></mxCell></object><mxCell id="eqNWz6j_g7pLFQq7WcsU-7" style="edgeStyle=orthogonalEdgeStyle;rounded=0;orthogonalLoop=1;jettySize=auto;html=1;" parent="1" source="6" target="1cw-LF3O0UJZNu12PKwH-7" edge="1"><mxGeometry relative="1" as="geometry"/></mxCell><object placeholders="1" c4Name="Data Lakehouse" c4Type="Software System" c4Description="" label="&lt;font style=&quot;font-size: 16px&quot;&gt;&lt;b&gt;%c4Name%&lt;/b&gt;&lt;/font&gt;&lt;div&gt;[%c4Type%]&lt;/div&gt;&lt;br&gt;&lt;div&gt;&lt;font style=&quot;font-size: 11px&quot;&gt;&lt;font color=&quot;#cccccc&quot;&gt;%c4Description%&lt;/font&gt;&lt;/div&gt;" id="6"><mxCell style="rounded=1;whiteSpace=wrap;html=1;labelBackgroundColor=none;fillColor=#1061B0;fontColor=#ffffff;align=center;arcSize=10;strokeColor=#0D5091;metaEdit=1;resizable=0;points=[[0.25,0,0],[0.5,0,0],[0.75,0,0],[1,0.25,0],[1,0.5,0],[1,0.75,0],[0.75,1,0],[0.5,1,0],[0.25,1,0],[0,0.75,0],[0,0.5,0],[0,0.25,0]];" parent="1" vertex="1"><mxGeometry x="414" y="300" width="240" height="120" as="geometry"/></mxCell></object><mxCell id="jWziOCZxQKqEYmVa4LU6-11" style="edgeStyle=orthogonalEdgeStyle;rounded=0;orthogonalLoop=1;jettySize=auto;html=1;entryX=0.75;entryY=1;entryDx=0;entryDy=0;entryPerimeter=0;exitX=0;exitY=0.5;exitDx=0;exitDy=0;exitPerimeter=0;" parent="1" source="7" target="6" edge="1"><mxGeometry relative="1" as="geometry"/></mxCell><object placeholders="1" c4Name="Power BI" c4Type="Software System" c4Description="" label="&lt;font style=&quot;font-size: 16px&quot;&gt;&lt;b&gt;%c4Name%&lt;/b&gt;&lt;/font&gt;&lt;div&gt;[%c4Type%]&lt;/div&gt;&lt;br&gt;&lt;div&gt;&lt;font style=&quot;font-size: 11px&quot;&gt;&lt;font color=&quot;#cccccc&quot;&gt;%c4Description%&lt;/font&gt;&lt;/div&gt;" id="7"><mxCell style="rounded=1;whiteSpace=wrap;html=1;labelBackgroundColor=none;fillColor=#1061B0;fontColor=#ffffff;align=center;arcSize=10;strokeColor=#0D5091;metaEdit=1;resizable=0;points=[[0.25,0,0],[0.5,0,0],[0.75,0,0],[1,0.25,0],[1,0.5,0],[1,0.75,0],[0.75,1,0],[0.5,1,0],[0.25,1,0],[0,0.75,0],[0,0.5,0],[0,0.25,0]];" parent="1" vertex="1"><mxGeometry x="820" y="590" width="240" height="120" as="geometry"/></mxCell></object><mxCell id="jWziOCZxQKqEYmVa4LU6-9" style="edgeStyle=orthogonalEdgeStyle;rounded=0;orthogonalLoop=1;jettySize=auto;html=1;entryX=0.25;entryY=1;entryDx=0;entryDy=0;entryPerimeter=0;" parent="1" source="bJouKnKpdkR9Nr-XX-v9-7" target="6" edge="1"><mxGeometry relative="1" as="geometry"/></mxCell><object placeholders="1" c4Name="Медицинские сервисы" c4Type="Software System" c4Description="Система финансовых сервисов на Golang и Java" label="&lt;font style=&quot;font-size: 16px&quot;&gt;&lt;b&gt;%c4Name%&lt;/b&gt;&lt;/font&gt;&lt;div&gt;[%c4Type%]&lt;/div&gt;&lt;br&gt;&lt;div&gt;&lt;font style=&quot;font-size: 11px&quot;&gt;&lt;font color=&quot;#cccccc&quot;&gt;%c4Description%&lt;/font&gt;&lt;/div&gt;" id="bJouKnKpdkR9Nr-XX-v9-7"><mxCell style="rounded=1;whiteSpace=wrap;html=1;labelBackgroundColor=none;fillColor=#1061B0;fontColor=#ffffff;align=center;arcSize=10;strokeColor=#0D5091;metaEdit=1;resizable=0;points=[[0.25,0,0],[0.5,0,0],[0.75,0,0],[1,0.25,0],[1,0.5,0],[1,0.75,0],[0.75,1,0],[0.5,1,0],[0.25,1,0],[0,0.75,0],[0,0.5,0],[0,0.25,0]];" parent="1" vertex="1"><mxGeometry x="50" y="470" width="240" height="120" as="geometry"/></mxCell></object><object placeholders="1" c4Name="Сервис метаданных" c4Type="Software System" c4Description="Техническое воплощение Data Mesh" label="&lt;font style=&quot;font-size: 16px&quot;&gt;&lt;b&gt;%c4Name%&lt;/b&gt;&lt;/font&gt;&lt;div&gt;[%c4Type%]&lt;/div&gt;&lt;br&gt;&lt;div&gt;&lt;font style=&quot;font-size: 11px&quot;&gt;&lt;font color=&quot;#cccccc&quot;&gt;%c4Description%&lt;/font&gt;&lt;/div&gt;" id="1cw-LF3O0UJZNu12PKwH-7"><mxCell style="rounded=1;whiteSpace=wrap;html=1;labelBackgroundColor=none;fillColor=#1061B0;fontColor=#ffffff;align=center;arcSize=10;strokeColor=#0D5091;metaEdit=1;resizable=0;points=[[0.25,0,0],[0.5,0,0],[0.75,0,0],[1,0.25,0],[1,0.5,0],[1,0.75,0],[0.75,1,0],[0.5,1,0],[0.25,1,0],[0,0.75,0],[0,0.5,0],[0,0.25,0]];" parent="1" vertex="1"><mxGeometry x="820" y="300" width="240" height="120" as="geometry"/></mxCell></object><mxCell id="pvqwV4xkYhAYnyo1mBfC-8" style="edgeStyle=orthogonalEdgeStyle;rounded=0;orthogonalLoop=1;jettySize=auto;html=1;" parent="1" source="pvqwV4xkYhAYnyo1mBfC-7" target="2" edge="1"><mxGeometry relative="1" as="geometry"/></mxCell><object placeholders="1" c4Name="Сотрудник" c4Type="Person" c4Description="" label="&lt;font style=&quot;font-size: 16px&quot;&gt;&lt;b&gt;%c4Name%&lt;/b&gt;&lt;/font&gt;&lt;div&gt;[%c4Type%]&lt;/div&gt;&lt;br&gt;&lt;div&gt;&lt;font style=&quot;font-size: 11px&quot;&gt;&lt;font color=&quot;#cccccc&quot;&gt;%c4Description%&lt;/font&gt;&lt;/div&gt;" id="pvqwV4xkYhAYnyo1mBfC-7"><mxCell style="html=1;fontSize=11;dashed=0;whiteSpace=wrap;fillColor=#083F75;strokeColor=#06315C;fontColor=#ffffff;shape=mxgraph.c4.person2;align=center;metaEdit=1;points=[[0.5,0,0],[1,0.5,0],[1,0.75,0],[0.75,1,0],[0.5,1,0],[0.25,1,0],[0,0.75,0],[0,0.5,0]];resizable=0;" parent="1" vertex="1"><mxGeometry x="1210" y="560" width="200" height="180" as="geometry"/></mxCell></object></root></mxGraphModel></diagram><diagram id="8i_M9Wmt8dOl9sMilWbp" name="C2"><mxGraphModel dx="3572" dy="623" grid="0" gridSize="10" guides="1" tooltips="1" connect="1" arrows="1" fold="1" page="0" pageScale="1" pageWidth="850" pageHeight="1100" math="0" shadow="0"><root><mxCell id="0"/><mxCell id="1" parent="0"/><mxCell id="yuHszToXrNQ3xFZAl_lQ-2" style="edgeStyle=orthogonalEdgeStyle;rounded=0;orthogonalLoop=1;jettySize=auto;html=1;" parent="1" source="uXZamKywYNKK_NegLSkp-1" target="yuHszToXrNQ3xFZAl_lQ-1" edge="1"><mxGeometry relative="1" as="geometry"/></mxCell><object placeholders="1" c4Type="DWH" c4Container="Container" c4Technology="Microsoft SQL-сервера 2008 года" c4Description="" label="&lt;font style=&quot;font-size: 16px&quot;&gt;&lt;b&gt;%c4Type%&lt;/b&gt;&lt;/font&gt;&lt;div&gt;[%c4Container%:&amp;nbsp;%c4Technology%]&lt;/div&gt;&lt;br&gt;&lt;div&gt;&lt;font style=&quot;font-size: 11px&quot;&gt;&lt;font color=&quot;#E6E6E6&quot;&gt;%c4Description%&lt;/font&gt;&lt;/div&gt;" id="uXZamKywYNKK_NegLSkp-1"><mxCell style="shape=cylinder3;size=15;whiteSpace=wrap;html=1;boundedLbl=1;rounded=0;labelBackgroundColor=none;fillColor=#23A2D9;fontSize=12;fontColor=#ffffff;align=center;strokeColor=#0E7DAD;metaEdit=1;points=[[0.5,0,0],[1,0.25,0],[1,0.5,0],[1,0.75,0],[0.5,1,0],[0,0.75,0],[0,0.5,0],[0,0.25,0]];resizable=0;" parent="1" vertex="1"><mxGeometry x="-1589" y="736" width="240" height="120" as="geometry"/></mxCell></object><mxCell id="GyOEUE6wmEK48pXzQRWV-19" style="edgeStyle=orthogonalEdgeStyle;rounded=0;orthogonalLoop=1;jettySize=auto;html=1;" parent="1" source="qfolQS0Iv-JqsglXWNlU-1" target="uXZamKywYNKK_NegLSkp-1" edge="1"><mxGeometry relative="1" as="geometry"/></mxCell><mxCell id="yuHszToXrNQ3xFZAl_lQ-6" style="edgeStyle=orthogonalEdgeStyle;rounded=0;orthogonalLoop=1;jettySize=auto;html=1;" parent="1" source="qfolQS0Iv-JqsglXWNlU-1" target="yuHszToXrNQ3xFZAl_lQ-1" edge="1"><mxGeometry relative="1" as="geometry"><Array as="points"><mxPoint x="-1796" y="929"/><mxPoint x="-1122" y="929"/></Array></mxGeometry></mxCell><object placeholders="1" c4Type="Шина данных" c4Container="Container" c4Technology="Apache Camel" c4Description="container role/responsibility." label="&lt;font style=&quot;font-size: 16px&quot;&gt;&lt;b&gt;%c4Type%&lt;/b&gt;&lt;/font&gt;&lt;div&gt;[%c4Container%:&amp;nbsp;%c4Technology%]&lt;/div&gt;&lt;br&gt;&lt;div&gt;&lt;font style=&quot;font-size: 11px&quot;&gt;&lt;font color=&quot;#E6E6E6&quot;&gt;%c4Description%&lt;/font&gt;&lt;/div&gt;" id="qfolQS0Iv-JqsglXWNlU-1"><mxCell style="shape=cylinder3;size=15;direction=south;whiteSpace=wrap;html=1;boundedLbl=1;rounded=0;labelBackgroundColor=none;fillColor=#23A2D9;fontSize=12;fontColor=#ffffff;align=center;strokeColor=#0E7DAD;metaEdit=1;points=[[0.5,0,0],[1,0.25,0],[1,0.5,0],[1,0.75,0],[0.5,1,0],[0,0.75,0],[0,0.5,0],[0,0.25,0]];resizable=0;" parent="1" vertex="1"><mxGeometry x="-1966" y="736" width="240" height="120" as="geometry"/></mxCell></object><mxCell id="OhluFPCrRhp2pNwpq7n2-2" style="edgeStyle=orthogonalEdgeStyle;rounded=0;orthogonalLoop=1;jettySize=auto;html=1;fontColor=#330000;startArrow=classic;startFill=1;" parent="1" source="OhluFPCrRhp2pNwpq7n2-1" target="qfolQS0Iv-JqsglXWNlU-1" edge="1"><mxGeometry relative="1" as="geometry"/></mxCell><mxCell id="yuHszToXrNQ3xFZAl_lQ-11" style="edgeStyle=orthogonalEdgeStyle;rounded=0;orthogonalLoop=1;jettySize=auto;html=1;" parent="1" source="OhluFPCrRhp2pNwpq7n2-1" target="yuHszToXrNQ3xFZAl_lQ-3" edge="1"><mxGeometry relative="1" as="geometry"/></mxCell><object placeholders="1" c4Name="ИИ сервисы" c4Type="Software System" c4Description="ИИ-сервисы для работы с медицинскими данными" label="&lt;font style=&quot;font-size: 16px&quot;&gt;&lt;b&gt;%c4Name%&lt;/b&gt;&lt;/font&gt;&lt;div&gt;[%c4Type%]&lt;/div&gt;&lt;br&gt;&lt;div&gt;&lt;font style=&quot;font-size: 11px&quot;&gt;&lt;font color=&quot;#cccccc&quot;&gt;%c4Description%&lt;/font&gt;&lt;/div&gt;" id="OhluFPCrRhp2pNwpq7n2-1"><mxCell style="rounded=1;whiteSpace=wrap;html=1;labelBackgroundColor=none;fillColor=#1061B0;fontColor=#ffffff;align=center;arcSize=10;strokeColor=#0D5091;metaEdit=1;resizable=0;points=[[0.25,0,0],[0.5,0,0],[0.75,0,0],[1,0.25,0],[1,0.5,0],[1,0.75,0],[0.75,1,0],[0.5,1,0],[0.25,1,0],[0,0.75,0],[0,0.5,0],[0,0.25,0]];" parent="1" vertex="1"><mxGeometry x="-1448" y="1130" width="240" height="120" as="geometry"/></mxCell></object><mxCell id="hm6NtoqCERlV51BhnNZn-2" style="edgeStyle=orthogonalEdgeStyle;rounded=0;orthogonalLoop=1;jettySize=auto;html=1;fontColor=#330000;startArrow=classic;startFill=1;" parent="1" source="hm6NtoqCERlV51BhnNZn-1" target="qfolQS0Iv-JqsglXWNlU-1" edge="1"><mxGeometry relative="1" as="geometry"/></mxCell><object placeholders="1" c4Name="Финтех сервисы" c4Type="Software System" c4Description="Система финансовых сервисов на Golang и Java" label="&lt;font style=&quot;font-size: 16px&quot;&gt;&lt;b&gt;%c4Name%&lt;/b&gt;&lt;/font&gt;&lt;div&gt;[%c4Type%]&lt;/div&gt;&lt;br&gt;&lt;div&gt;&lt;font style=&quot;font-size: 11px&quot;&gt;&lt;font color=&quot;#cccccc&quot;&gt;%c4Description%&lt;/font&gt;&lt;/div&gt;" id="hm6NtoqCERlV51BhnNZn-1"><mxCell style="rounded=1;whiteSpace=wrap;html=1;labelBackgroundColor=none;fillColor=#1061B0;fontColor=#ffffff;align=center;arcSize=10;strokeColor=#0D5091;metaEdit=1;resizable=0;points=[[0.25,0,0],[0.5,0,0],[0.75,0,0],[1,0.25,0],[1,0.5,0],[1,0.75,0],[0.75,1,0],[0.5,1,0],[0.25,1,0],[0,0.75,0],[0,0.5,0],[0,0.25,0]];" parent="1" vertex="1"><mxGeometry x="-1966" y="368" width="240" height="120" as="geometry"/></mxCell></object><mxCell id="85sUpvyYu7XLjou6rN53-4" style="edgeStyle=orthogonalEdgeStyle;rounded=0;orthogonalLoop=1;jettySize=auto;html=1;" parent="1" source="85sUpvyYu7XLjou6rN53-3" target="qfolQS0Iv-JqsglXWNlU-1" edge="1"><mxGeometry relative="1" as="geometry"/></mxCell><object placeholders="1" c4Name="Медицинские сервисы" c4Type="Software System" c4Description="Система финансовых сервисов на Golang и Java" label="&lt;font style=&quot;font-size: 16px&quot;&gt;&lt;b&gt;%c4Name%&lt;/b&gt;&lt;/font&gt;&lt;div&gt;[%c4Type%]&lt;/div&gt;&lt;br&gt;&lt;div&gt;&lt;font style=&quot;font-size: 11px&quot;&gt;&lt;font color=&quot;#cccccc&quot;&gt;%c4Description%&lt;/font&gt;&lt;/div&gt;" id="85sUpvyYu7XLjou6rN53-3"><mxCell style="rounded=1;whiteSpace=wrap;html=1;labelBackgroundColor=none;fillColor=#1061B0;fontColor=#ffffff;align=center;arcSize=10;strokeColor=#0D5091;metaEdit=1;resizable=0;points=[[0.25,0,0],[0.5,0,0],[0.75,0,0],[1,0.25,0],[1,0.5,0],[1,0.75,0],[0.75,1,0],[0.5,1,0],[0.25,1,0],[0,0.75,0],[0,0.5,0],[0,0.25,0]];" parent="1" vertex="1"><mxGeometry x="-2328" y="736" width="240" height="120" as="geometry"/></mxCell></object><object placeholders="1" c4Name="Сервис метаданных" c4Type="SystemScopeBoundary" c4Application="Software System" label="&lt;font style=&quot;font-size: 16px&quot;&gt;&lt;b&gt;&lt;div style=&quot;text-align: left&quot;&gt;%c4Name%&lt;/div&gt;&lt;/b&gt;&lt;/font&gt;&lt;div style=&quot;text-align: left&quot;&gt;[%c4Application%]&lt;/div&gt;" id="tRu-eJ3HQIWK9Mx4Z1jR-9"><mxCell style="rounded=1;fontSize=11;whiteSpace=wrap;html=1;dashed=1;arcSize=20;fillColor=none;strokeColor=#666666;fontColor=#333333;labelBackgroundColor=none;align=left;verticalAlign=bottom;labelBorderColor=none;spacingTop=0;spacing=10;dashPattern=8 4;metaEdit=1;rotatable=0;perimeter=rectanglePerimeter;noLabel=0;labelPadding=0;allowArrows=0;connectable=0;expand=0;recursiveResize=0;editable=1;pointerEvents=0;absoluteArcSize=1;points=[[0.25,0,0],[0.5,0,0],[0.75,0,0],[1,0.25,0],[1,0.5,0],[1,0.75,0],[0.75,1,0],[0.5,1,0],[0.25,1,0],[0,0.75,0],[0,0.5,0],[0,0.25,0]];" parent="1" vertex="1"><mxGeometry x="-440" y="550" width="1380" height="513" as="geometry"/></mxCell></object><mxCell id="tRu-eJ3HQIWK9Mx4Z1jR-14" value="commit" style="edgeStyle=orthogonalEdgeStyle;rounded=0;orthogonalLoop=1;jettySize=auto;html=1;" parent="1" source="tRu-eJ3HQIWK9Mx4Z1jR-10" target="tRu-eJ3HQIWK9Mx4Z1jR-13" edge="1"><mxGeometry x="-0.5135" relative="1" as="geometry"><Array as="points"><mxPoint x="110" y="920"/></Array><mxPoint as="offset"/></mxGeometry></mxCell><object placeholders="1" c4Type="Metadata Change Log" c4Container="Container" c4Technology="Apache Kafka" c4Description="Для внесения соответствующих изменений в графовый и поисковой индексы" label="&lt;font style=&quot;font-size: 16px&quot;&gt;&lt;b&gt;%c4Type%&lt;/b&gt;&lt;/font&gt;&lt;div&gt;[%c4Container%:&amp;nbsp;%c4Technology%]&lt;/div&gt;&lt;br&gt;&lt;div&gt;&lt;font style=&quot;font-size: 11px&quot;&gt;&lt;font color=&quot;#E6E6E6&quot;&gt;%c4Description%&lt;/font&gt;&lt;/div&gt;" id="tRu-eJ3HQIWK9Mx4Z1jR-10"><mxCell style="shape=cylinder3;size=15;direction=south;whiteSpace=wrap;html=1;boundedLbl=1;rounded=0;labelBackgroundColor=none;fillColor=#23A2D9;fontSize=12;fontColor=#ffffff;align=center;strokeColor=#0E7DAD;metaEdit=1;points=[[0.5,0,0],[1,0.25,0],[1,0.5,0],[1,0.75,0],[0.5,1,0],[0,0.75,0],[0,0.5,0],[0,0.25,0]];resizable=0;" parent="1" vertex="1"><mxGeometry x="-10" y="630" width="240" height="120" as="geometry"/></mxCell></object><mxCell id="tRu-eJ3HQIWK9Mx4Z1jR-12" style="edgeStyle=orthogonalEdgeStyle;rounded=0;orthogonalLoop=1;jettySize=auto;html=1;" parent="1" source="tRu-eJ3HQIWK9Mx4Z1jR-6" target="tRu-eJ3HQIWK9Mx4Z1jR-10" edge="1"><mxGeometry relative="1" as="geometry"/></mxCell><mxCell id="tRu-eJ3HQIWK9Mx4Z1jR-16" style="edgeStyle=orthogonalEdgeStyle;rounded=0;orthogonalLoop=1;jettySize=auto;html=1;" parent="1" source="tRu-eJ3HQIWK9Mx4Z1jR-13" target="tRu-eJ3HQIWK9Mx4Z1jR-15" edge="1"><mxGeometry relative="1" as="geometry"/></mxCell><mxCell id="tRu-eJ3HQIWK9Mx4Z1jR-18" style="edgeStyle=orthogonalEdgeStyle;rounded=0;orthogonalLoop=1;jettySize=auto;html=1;" parent="1" source="tRu-eJ3HQIWK9Mx4Z1jR-13" target="tRu-eJ3HQIWK9Mx4Z1jR-17" edge="1"><mxGeometry relative="1" as="geometry"/></mxCell><object placeholders="1" c4Name="Charge stream processor" c4Type="Container" c4Technology="DataHub" c4Description="" label="&lt;font style=&quot;font-size: 16px&quot;&gt;&lt;b&gt;%c4Name%&lt;/b&gt;&lt;/font&gt;&lt;div&gt;[%c4Type%: %c4Technology%]&lt;/div&gt;&lt;br&gt;&lt;div&gt;&lt;font style=&quot;font-size: 11px&quot;&gt;&lt;font color=&quot;#E6E6E6&quot;&gt;%c4Description%&lt;/font&gt;&lt;/div&gt;" id="tRu-eJ3HQIWK9Mx4Z1jR-13"><mxCell style="rounded=1;whiteSpace=wrap;html=1;fontSize=11;labelBackgroundColor=none;fillColor=#23A2D9;fontColor=#ffffff;align=center;arcSize=10;strokeColor=#0E7DAD;metaEdit=1;resizable=0;points=[[0.25,0,0],[0.5,0,0],[0.75,0,0],[1,0.25,0],[1,0.5,0],[1,0.75,0],[0.75,1,0],[0.5,1,0],[0.25,1,0],[0,0.75,0],[0,0.5,0],[0,0.25,0]];" parent="1" vertex="1"><mxGeometry x="310" y="860" width="240" height="120" as="geometry"/></mxCell></object><object placeholders="1" c4Name="Search index" c4Type="Container" c4Technology="ElasticSearch" c4Description="Полнотекстовый и расширенный поиск" label="&lt;font style=&quot;font-size: 16px&quot;&gt;&lt;b&gt;%c4Name%&lt;/b&gt;&lt;/font&gt;&lt;div&gt;[%c4Type%: %c4Technology%]&lt;/div&gt;&lt;br&gt;&lt;div&gt;&lt;font style=&quot;font-size: 11px&quot;&gt;&lt;font color=&quot;#E6E6E6&quot;&gt;%c4Description%&lt;/font&gt;&lt;/div&gt;" id="tRu-eJ3HQIWK9Mx4Z1jR-15"><mxCell style="rounded=1;whiteSpace=wrap;html=1;fontSize=11;labelBackgroundColor=none;fillColor=#23A2D9;fontColor=#ffffff;align=center;arcSize=10;strokeColor=#0E7DAD;metaEdit=1;resizable=0;points=[[0.25,0,0],[0.5,0,0],[0.75,0,0],[1,0.25,0],[1,0.5,0],[1,0.75,0],[0.75,1,0],[0.5,1,0],[0.25,1,0],[0,0.75,0],[0,0.5,0],[0,0.25,0]];" parent="1" vertex="1"><mxGeometry x="650" y="630" width="240" height="120" as="geometry"/></mxCell></object><object placeholders="1" c4Name="Graph index" c4Type="Container" c4Technology="Neo4J" c4Description="сложные графовые запросы для обеспечения lineage" label="&lt;font style=&quot;font-size: 16px&quot;&gt;&lt;b&gt;%c4Name%&lt;/b&gt;&lt;/font&gt;&lt;div&gt;[%c4Type%: %c4Technology%]&lt;/div&gt;&lt;br&gt;&lt;div&gt;&lt;font style=&quot;font-size: 11px&quot;&gt;&lt;font color=&quot;#E6E6E6&quot;&gt;%c4Description%&lt;/font&gt;&lt;/div&gt;" id="tRu-eJ3HQIWK9Mx4Z1jR-17"><mxCell style="rounded=1;whiteSpace=wrap;html=1;fontSize=11;labelBackgroundColor=none;fillColor=#23A2D9;fontColor=#ffffff;align=center;arcSize=10;strokeColor=#0E7DAD;metaEdit=1;resizable=0;points=[[0.25,0,0],[0.5,0,0],[0.75,0,0],[1,0.25,0],[1,0.5,0],[1,0.75,0],[0.75,1,0],[0.5,1,0],[0.25,1,0],[0,0.75,0],[0,0.5,0],[0,0.25,0]];" parent="1" vertex="1"><mxGeometry x="310" y="630" width="240" height="120" as="geometry"/></mxCell></object><mxCell id="tRu-eJ3HQIWK9Mx4Z1jR-19" value="&lt;span style=&quot;color: rgb(0, 0, 0); font-family: Helvetica; font-size: 11px; font-style: normal; font-variant-ligatures: normal; font-variant-caps: normal; font-weight: 400; letter-spacing: normal; orphans: 2; text-align: center; text-indent: 0px; text-transform: none; widows: 2; word-spacing: 0px; -webkit-text-stroke-width: 0px; background-color: rgb(255, 255, 255); text-decoration-thickness: initial; text-decoration-style: initial; text-decoration-color: initial; float: none; display: inline !important;&quot;&gt;[REST|GraphQL]&lt;/span&gt;" style="edgeStyle=orthogonalEdgeStyle;rounded=0;orthogonalLoop=1;jettySize=auto;html=1;" parent="1" source="tRu-eJ3HQIWK9Mx4Z1jR-6" target="tRu-eJ3HQIWK9Mx4Z1jR-15" edge="1"><mxGeometry x="0.5511" relative="1" as="geometry"><mxPoint as="offset"/></mxGeometry></mxCell><mxCell id="tRu-eJ3HQIWK9Mx4Z1jR-20" value="[REST|GraphQL]" style="edgeStyle=orthogonalEdgeStyle;rounded=0;orthogonalLoop=1;jettySize=auto;html=1;" parent="1" source="tRu-eJ3HQIWK9Mx4Z1jR-6" target="tRu-eJ3HQIWK9Mx4Z1jR-17" edge="1"><mxGeometry x="-0.0476" relative="1" as="geometry"><mxPoint as="offset"/></mxGeometry></mxCell><object placeholders="1" c4Name="Витрина данных" c4Type="SystemScopeBoundary" c4Application="Software System" label="&lt;font style=&quot;font-size: 16px&quot;&gt;&lt;b&gt;&lt;div style=&quot;text-align: left&quot;&gt;%c4Name%&lt;/div&gt;&lt;/b&gt;&lt;/font&gt;&lt;div style=&quot;text-align: left&quot;&gt;[%c4Application%]&lt;/div&gt;" id="EMeKOMLXcdAkjnv3p1Qj-1"><mxCell style="rounded=1;fontSize=11;whiteSpace=wrap;html=1;dashed=1;arcSize=20;fillColor=none;strokeColor=#666666;fontColor=#333333;labelBackgroundColor=none;align=left;verticalAlign=bottom;labelBorderColor=none;spacingTop=0;spacing=10;dashPattern=8 4;metaEdit=1;rotatable=0;perimeter=rectanglePerimeter;noLabel=0;labelPadding=0;allowArrows=0;connectable=0;expand=0;recursiveResize=0;editable=1;pointerEvents=0;absoluteArcSize=1;points=[[0.25,0,0],[0.5,0,0],[0.75,0,0],[1,0.25,0],[1,0.5,0],[1,0.75,0],[0.75,1,0],[0.5,1,0],[0.25,1,0],[0,0.75,0],[0,0.5,0],[0,0.25,0]];" parent="1" vertex="1"><mxGeometry y="30" width="890" height="460" as="geometry"/></mxCell></object><object placeholders="1" c4Name="UI отчетности" c4Type="Container" c4Technology="React" c4Description="" label="&lt;font style=&quot;font-size: 16px&quot;&gt;&lt;b&gt;%c4Name%&lt;/b&gt;&lt;/font&gt;&lt;div&gt;[%c4Type%: %c4Technology%]&lt;/div&gt;&lt;br&gt;&lt;div&gt;&lt;font style=&quot;font-size: 11px&quot;&gt;&lt;font color=&quot;#E6E6E6&quot;&gt;%c4Description%&lt;/font&gt;&lt;/div&gt;" id="5u0WfhAQeUIpRheXeeQP-1"><mxCell style="rounded=1;whiteSpace=wrap;html=1;fontSize=11;labelBackgroundColor=none;fillColor=#23A2D9;fontColor=#ffffff;align=center;arcSize=10;strokeColor=#0E7DAD;metaEdit=1;resizable=0;points=[[0.25,0,0],[0.5,0,0],[0.75,0,0],[1,0.25,0],[1,0.5,0],[1,0.75,0],[0.75,1,0],[0.5,1,0],[0.25,1,0],[0,0.75,0],[0,0.5,0],[0,0.25,0]];" parent="1" vertex="1"><mxGeometry x="-310" y="100" width="240" height="120" as="geometry"/></mxCell></object><mxCell id="Z7a_9vQRNPoOsuvVyZUF-4" style="edgeStyle=orthogonalEdgeStyle;rounded=0;orthogonalLoop=1;jettySize=auto;html=1;" parent="1" source="5u0WfhAQeUIpRheXeeQP-1" target="Z7a_9vQRNPoOsuvVyZUF-7" edge="1"><mxGeometry relative="1" as="geometry"/></mxCell><mxCell id="Z7a_9vQRNPoOsuvVyZUF-9" style="edgeStyle=orthogonalEdgeStyle;rounded=0;orthogonalLoop=1;jettySize=auto;html=1;" parent="1" source="Z7a_9vQRNPoOsuvVyZUF-3" target="5u0WfhAQeUIpRheXeeQP-1" edge="1"><mxGeometry relative="1" as="geometry"/></mxCell><object placeholders="1" c4Name="Сотрудник" c4Type="Person" c4Description="" label="&lt;font style=&quot;font-size: 16px&quot;&gt;&lt;b&gt;%c4Name%&lt;/b&gt;&lt;/font&gt;&lt;div&gt;[%c4Type%]&lt;/div&gt;&lt;br&gt;&lt;div&gt;&lt;font style=&quot;font-size: 11px&quot;&gt;&lt;font color=&quot;#cccccc&quot;&gt;%c4Description%&lt;/font&gt;&lt;/div&gt;" id="Z7a_9vQRNPoOsuvVyZUF-3"><mxCell style="html=1;fontSize=11;dashed=0;whiteSpace=wrap;fillColor=#083F75;strokeColor=#06315C;fontColor=#ffffff;shape=mxgraph.c4.person2;align=center;metaEdit=1;points=[[0.5,0,0],[1,0.5,0],[1,0.75,0],[0.75,1,0],[0.5,1,0],[0.25,1,0],[0,0.75,0],[0,0.5,0]];resizable=0;" parent="1" vertex="1"><mxGeometry x="-700" y="70" width="200" height="180" as="geometry"/></mxCell></object><object placeholders="1" c4Name="API Gateway" c4Type="Container" c4Technology="" c4Description="" label="&lt;font style=&quot;font-size: 16px&quot;&gt;&lt;b&gt;%c4Name%&lt;/b&gt;&lt;/font&gt;&lt;div&gt;[%c4Type%: %c4Technology%]&lt;/div&gt;&lt;br&gt;&lt;div&gt;&lt;font style=&quot;font-size: 11px&quot;&gt;&lt;font color=&quot;#E6E6E6&quot;&gt;%c4Description%&lt;/font&gt;&lt;/div&gt;" id="Z7a_9vQRNPoOsuvVyZUF-7"><mxCell style="rounded=1;whiteSpace=wrap;html=1;fontSize=11;labelBackgroundColor=none;fillColor=#23A2D9;fontColor=#ffffff;align=center;arcSize=10;strokeColor=#0E7DAD;metaEdit=1;resizable=0;points=[[0.25,0,0],[0.5,0,0],[0.75,0,0],[1,0.25,0],[1,0.5,0],[1,0.75,0],[0.75,1,0],[0.5,1,0],[0.25,1,0],[0,0.75,0],[0,0.5,0],[0,0.25,0]];" parent="1" vertex="1"><mxGeometry x="90" y="100" width="240" height="120" as="geometry"/></mxCell></object><object placeholders="1" c4Name="IAM" c4Type="Container" c4Technology="KeyCloak" c4Description="Управление аутентификацией и предоставлением доступа" label="&lt;font style=&quot;font-size: 16px&quot;&gt;&lt;b&gt;%c4Name%&lt;/b&gt;&lt;/font&gt;&lt;div&gt;[%c4Type%: %c4Technology%]&lt;/div&gt;&lt;br&gt;&lt;div&gt;&lt;font style=&quot;font-size: 11px&quot;&gt;&lt;font color=&quot;#E6E6E6&quot;&gt;%c4Description%&lt;/font&gt;&lt;/div&gt;" id="tRu-eJ3HQIWK9Mx4Z1jR-2"><mxCell style="rounded=1;whiteSpace=wrap;html=1;fontSize=11;labelBackgroundColor=none;fillColor=#23A2D9;fontColor=#ffffff;align=center;arcSize=10;strokeColor=#0E7DAD;metaEdit=1;resizable=0;points=[[0.25,0,0],[0.5,0,0],[0.75,0,0],[1,0.25,0],[1,0.5,0],[1,0.75,0],[0.75,1,0],[0.5,1,0],[0.25,1,0],[0,0.75,0],[0,0.5,0],[0,0.25,0]];" parent="1" vertex="1"><mxGeometry x="530" y="100" width="240" height="120" as="geometry"/></mxCell></object><mxCell id="tRu-eJ3HQIWK9Mx4Z1jR-7" style="edgeStyle=orthogonalEdgeStyle;rounded=0;orthogonalLoop=1;jettySize=auto;html=1;" parent="1" source="tRu-eJ3HQIWK9Mx4Z1jR-6" target="Z7a_9vQRNPoOsuvVyZUF-7" edge="1"><mxGeometry relative="1" as="geometry"/></mxCell><object placeholders="1" c4Name="Frontend Server" c4Type="Container" c4Technology="DataHub frontend server" c4Description="" label="&lt;font style=&quot;font-size: 16px&quot;&gt;&lt;b&gt;%c4Name%&lt;/b&gt;&lt;/font&gt;&lt;div&gt;[%c4Type%: %c4Technology%]&lt;/div&gt;&lt;br&gt;&lt;div&gt;&lt;font style=&quot;font-size: 11px&quot;&gt;&lt;font color=&quot;#E6E6E6&quot;&gt;%c4Description%&lt;/font&gt;&lt;/div&gt;" id="tRu-eJ3HQIWK9Mx4Z1jR-6"><mxCell style="rounded=1;whiteSpace=wrap;html=1;fontSize=11;labelBackgroundColor=none;fillColor=#23A2D9;fontColor=#ffffff;align=center;arcSize=10;strokeColor=#0E7DAD;metaEdit=1;resizable=0;points=[[0.25,0,0],[0.5,0,0],[0.75,0,0],[1,0.25,0],[1,0.5,0],[1,0.75,0],[0.75,1,0],[0.5,1,0],[0.25,1,0],[0,0.75,0],[0,0.5,0],[0,0.25,0]];" parent="1" vertex="1"><mxGeometry x="310" y="300" width="240" height="120" as="geometry"/></mxCell></object><mxCell id="Z7a_9vQRNPoOsuvVyZUF-8" style="edgeStyle=orthogonalEdgeStyle;rounded=0;orthogonalLoop=1;jettySize=auto;html=1;" parent="1" source="tRu-eJ3HQIWK9Mx4Z1jR-6" target="tRu-eJ3HQIWK9Mx4Z1jR-2" edge="1"><mxGeometry relative="1" as="geometry"><mxPoint x="830" y="80" as="targetPoint"/></mxGeometry></mxCell><mxCell id="tRu-eJ3HQIWK9Mx4Z1jR-22" style="edgeStyle=orthogonalEdgeStyle;rounded=0;orthogonalLoop=1;jettySize=auto;html=1;" parent="1" source="tRu-eJ3HQIWK9Mx4Z1jR-21" target="tRu-eJ3HQIWK9Mx4Z1jR-10" edge="1"><mxGeometry relative="1" as="geometry"/></mxCell><mxCell id="tRu-eJ3HQIWK9Mx4Z1jR-24" style="edgeStyle=orthogonalEdgeStyle;rounded=0;orthogonalLoop=1;jettySize=auto;html=1;endArrow=none;endFill=0;startArrow=classic;startFill=1;" parent="1" source="tRu-eJ3HQIWK9Mx4Z1jR-21" target="yuHszToXrNQ3xFZAl_lQ-7" edge="1"><mxGeometry relative="1" as="geometry"><mxPoint x="-513" y="440" as="targetPoint"/></mxGeometry></mxCell><mxCell id="tRu-eJ3HQIWK9Mx4Z1jR-25" value="Scheduled Pull&lt;br&gt;Batch push" style="edgeLabel;html=1;align=center;verticalAlign=middle;resizable=0;points=[];" parent="tRu-eJ3HQIWK9Mx4Z1jR-24" vertex="1" connectable="0"><mxGeometry x="0.3037" y="2" relative="1" as="geometry"><mxPoint x="30" y="-2" as="offset"/></mxGeometry></mxCell><object placeholders="1" c4Name="Ingestion service" c4Type="Container" c4Technology="Ingestion Framework DataHub" c4Description="Pull-интеграция" label="&lt;font style=&quot;font-size: 16px&quot;&gt;&lt;b&gt;%c4Name%&lt;/b&gt;&lt;/font&gt;&lt;div&gt;[%c4Type%: %c4Technology%]&lt;/div&gt;&lt;br&gt;&lt;div&gt;&lt;font style=&quot;font-size: 11px&quot;&gt;&lt;font color=&quot;#E6E6E6&quot;&gt;%c4Description%&lt;/font&gt;&lt;/div&gt;" id="tRu-eJ3HQIWK9Mx4Z1jR-21"><mxCell style="rounded=1;whiteSpace=wrap;html=1;fontSize=11;labelBackgroundColor=none;fillColor=#23A2D9;fontColor=#ffffff;align=center;arcSize=10;strokeColor=#0E7DAD;metaEdit=1;resizable=0;points=[[0.25,0,0],[0.5,0,0],[0.75,0,0],[1,0.25,0],[1,0.5,0],[1,0.75,0],[0.75,1,0],[0.5,1,0],[0.25,1,0],[0,0.75,0],[0,0.5,0],[0,0.25,0]];" parent="1" vertex="1"><mxGeometry x="-380" y="630" width="240" height="120" as="geometry"/></mxCell></object><object placeholders="1" c4Name="Data Lakehouse" c4Type="SystemScopeBoundary" c4Application="Software System" label="&lt;font style=&quot;font-size: 16px&quot;&gt;&lt;b&gt;&lt;div style=&quot;text-align: left&quot;&gt;%c4Name%&lt;/div&gt;&lt;/b&gt;&lt;/font&gt;&lt;div style=&quot;text-align: left&quot;&gt;[%c4Application%]&lt;/div&gt;" id="tRu-eJ3HQIWK9Mx4Z1jR-27"><mxCell style="rounded=1;fontSize=11;whiteSpace=wrap;html=1;dashed=1;arcSize=20;fillColor=none;strokeColor=#666666;fontColor=#333333;labelBackgroundColor=none;align=left;verticalAlign=bottom;labelBorderColor=none;spacingTop=0;spacing=10;dashPattern=8 4;metaEdit=1;rotatable=0;perimeter=rectanglePerimeter;noLabel=0;labelPadding=0;allowArrows=0;connectable=0;expand=0;recursiveResize=0;editable=1;pointerEvents=0;absoluteArcSize=1;points=[[0.25,0,0],[0.5,0,0],[0.75,0,0],[1,0.25,0],[1,0.5,0],[1,0.75,0],[0.75,1,0],[0.5,1,0],[0.25,1,0],[0,0.75,0],[0,0.5,0],[0,0.25,0]];" parent="1" vertex="1"><mxGeometry x="-2018" y="550" width="1455" height="511" as="geometry"/></mxCell></object><mxCell id="yuHszToXrNQ3xFZAl_lQ-4" style="edgeStyle=orthogonalEdgeStyle;rounded=0;orthogonalLoop=1;jettySize=auto;html=1;" parent="1" source="yuHszToXrNQ3xFZAl_lQ-1" target="yuHszToXrNQ3xFZAl_lQ-3" edge="1"><mxGeometry relative="1" as="geometry"><Array as="points"><mxPoint x="-1075" y="928"/></Array></mxGeometry></mxCell><mxCell id="yuHszToXrNQ3xFZAl_lQ-8" style="edgeStyle=orthogonalEdgeStyle;rounded=0;orthogonalLoop=1;jettySize=auto;html=1;" parent="1" source="yuHszToXrNQ3xFZAl_lQ-1" target="yuHszToXrNQ3xFZAl_lQ-7" edge="1"><mxGeometry relative="1" as="geometry"><Array as="points"><mxPoint x="-1075" y="690"/></Array></mxGeometry></mxCell><object placeholders="1" c4Name="ETL" c4Type="Container" c4Technology="Apache Airflow" c4Description="" label="&lt;font style=&quot;font-size: 16px&quot;&gt;&lt;b&gt;%c4Name%&lt;/b&gt;&lt;/font&gt;&lt;div&gt;[%c4Type%: %c4Technology%]&lt;/div&gt;&lt;br&gt;&lt;div&gt;&lt;font style=&quot;font-size: 11px&quot;&gt;&lt;font color=&quot;#E6E6E6&quot;&gt;%c4Description%&lt;/font&gt;&lt;/div&gt;" id="yuHszToXrNQ3xFZAl_lQ-1"><mxCell style="rounded=1;whiteSpace=wrap;html=1;fontSize=11;labelBackgroundColor=none;fillColor=#23A2D9;fontColor=#ffffff;align=center;arcSize=10;strokeColor=#0E7DAD;metaEdit=1;resizable=0;points=[[0.25,0,0],[0.5,0,0],[0.75,0,0],[1,0.25,0],[1,0.5,0],[1,0.75,0],[0.75,1,0],[0.5,1,0],[0.25,1,0],[0,0.75,0],[0,0.5,0],[0,0.25,0]];" parent="1" vertex="1"><mxGeometry x="-1195" y="737" width="240" height="120" as="geometry"/></mxCell></object><object placeholders="1" c4Type="Raw data storage" c4Container="Container" c4Technology="S3" c4Description="Хранение необработанных данных" label="&lt;font style=&quot;font-size: 16px&quot;&gt;&lt;b&gt;%c4Type%&lt;/b&gt;&lt;/font&gt;&lt;div&gt;[%c4Container%:&amp;nbsp;%c4Technology%]&lt;/div&gt;&lt;br&gt;&lt;div&gt;&lt;font style=&quot;font-size: 11px&quot;&gt;&lt;font color=&quot;#E6E6E6&quot;&gt;%c4Description%&lt;/font&gt;&lt;/div&gt;" id="yuHszToXrNQ3xFZAl_lQ-3"><mxCell style="shape=cylinder3;size=15;whiteSpace=wrap;html=1;boundedLbl=1;rounded=0;labelBackgroundColor=none;fillColor=#23A2D9;fontSize=12;fontColor=#ffffff;align=center;strokeColor=#0E7DAD;metaEdit=1;points=[[0.5,0,0],[1,0.25,0],[1,0.5,0],[1,0.75,0],[0.5,1,0],[0,0.75,0],[0,0.5,0],[0,0.25,0]];resizable=0;" parent="1" vertex="1"><mxGeometry x="-861" y="860" width="240" height="120" as="geometry"/></mxCell></object><object placeholders="1" c4Type="Processed data storage" c4Container="Container" c4Technology="ClickHouse" c4Description="Хранение необработанных данных" label="&lt;font style=&quot;font-size: 16px&quot;&gt;&lt;b&gt;%c4Type%&lt;/b&gt;&lt;/font&gt;&lt;div&gt;[%c4Container%:&amp;nbsp;%c4Technology%]&lt;/div&gt;&lt;br&gt;&lt;div&gt;&lt;font style=&quot;font-size: 11px&quot;&gt;&lt;font color=&quot;#E6E6E6&quot;&gt;%c4Description%&lt;/font&gt;&lt;/div&gt;" id="yuHszToXrNQ3xFZAl_lQ-7"><mxCell style="shape=cylinder3;size=15;whiteSpace=wrap;html=1;boundedLbl=1;rounded=0;labelBackgroundColor=none;fillColor=#23A2D9;fontSize=12;fontColor=#ffffff;align=center;strokeColor=#0E7DAD;metaEdit=1;points=[[0.5,0,0],[1,0.25,0],[1,0.5,0],[1,0.75,0],[0.5,1,0],[0,0.75,0],[0,0.5,0],[0,0.25,0]];resizable=0;" parent="1" vertex="1"><mxGeometry x="-861" y="630" width="240" height="120" as="geometry"/></mxCell></object><mxCell id="yuHszToXrNQ3xFZAl_lQ-9" style="edgeStyle=orthogonalEdgeStyle;rounded=0;orthogonalLoop=1;jettySize=auto;html=1;endArrow=none;endFill=0;startArrow=classic;startFill=1;" parent="1" source="tRu-eJ3HQIWK9Mx4Z1jR-21" target="yuHszToXrNQ3xFZAl_lQ-3" edge="1"><mxGeometry relative="1" as="geometry"><mxPoint x="-370" y="700" as="sourcePoint"/><mxPoint x="-611" y="700" as="targetPoint"/><Array as="points"><mxPoint x="-260" y="921"/></Array></mxGeometry></mxCell><mxCell id="yuHszToXrNQ3xFZAl_lQ-10" value="Scheduled Pull&lt;br&gt;Batch push" style="edgeLabel;html=1;align=center;verticalAlign=middle;resizable=0;points=[];" parent="yuHszToXrNQ3xFZAl_lQ-9" vertex="1" connectable="0"><mxGeometry x="0.3037" y="2" relative="1" as="geometry"><mxPoint x="-55" y="-2" as="offset"/></mxGeometry></mxCell><mxCell id="NGLETaEWs0gQnZMm8uso-2" style="edgeStyle=orthogonalEdgeStyle;rounded=0;orthogonalLoop=1;jettySize=auto;html=1;" parent="1" source="NGLETaEWs0gQnZMm8uso-1" target="uXZamKywYNKK_NegLSkp-1" edge="1"><mxGeometry relative="1" as="geometry"/></mxCell><object placeholders="1" c4Name="Power BI" c4Type="Software System" c4Description="" label="&lt;font style=&quot;font-size: 16px&quot;&gt;&lt;b&gt;%c4Name%&lt;/b&gt;&lt;/font&gt;&lt;div&gt;[%c4Type%]&lt;/div&gt;&lt;br&gt;&lt;div&gt;&lt;font style=&quot;font-size: 11px&quot;&gt;&lt;font color=&quot;#cccccc&quot;&gt;%c4Description%&lt;/font&gt;&lt;/div&gt;" id="NGLETaEWs0gQnZMm8uso-1"><mxCell style="rounded=1;whiteSpace=wrap;html=1;labelBackgroundColor=none;fillColor=#1061B0;fontColor=#ffffff;align=center;arcSize=10;strokeColor=#0D5091;metaEdit=1;resizable=0;points=[[0.25,0,0],[0.5,0,0],[0.75,0,0],[1,0.25,0],[1,0.5,0],[1,0.75,0],[0.75,1,0],[0.5,1,0],[0.25,1,0],[0,0.75,0],[0,0.5,0],[0,0.25,0]];" parent="1" vertex="1"><mxGeometry x="-1589" y="368" width="240" height="120" as="geometry"/></mxCell></object><mxCell id="tRu-eJ3HQIWK9Mx4Z1jR-3" value="Пояснения" parent="0" visible="0"/><mxCell id="tRu-eJ3HQIWK9Mx4Z1jR-5" value="&lt;div&gt;В DWH лежат:&lt;/div&gt;&lt;div&gt;Данные по клиентам.&lt;/div&gt;&lt;div&gt;Медицинские карты и истории болезни, в том числе — данные исследований, выполненных в ходе лечения.&lt;/div&gt;&lt;div&gt;Финансовая история.&lt;/div&gt;&lt;div&gt;Счета.&lt;/div&gt;&lt;div&gt;Данные о кредитах.&lt;/div&gt;&lt;div&gt;Данные по персоналу больницы.&lt;/div&gt;&lt;div&gt;Данные по инвентаризации.&lt;/div&gt;&lt;div&gt;Финансовая отчётность и много другой информации.&lt;/div&gt;" style="text;html=1;strokeColor=#d6b656;fillColor=#fff2cc;align=left;verticalAlign=top;whiteSpace=wrap;rounded=0;" parent="tRu-eJ3HQIWK9Mx4Z1jR-3" vertex="1"><mxGeometry x="-830" y="-240" width="690" height="150" as="geometry"/></mxCell></root></mxGraphModel></diagram><diagram id="6IDQutLIOQZ1sIi_gpYz" name="Data Flow As Is"><mxGraphModel dx="1795" dy="735" grid="1" gridSize="10" guides="1" tooltips="1" connect="1" arrows="1" fold="1" page="1" pageScale="1" pageWidth="850" pageHeight="1100" math="0" shadow="0"><root><mxCell id="0"/><mxCell id="1" parent="0"/><mxCell id="pXJq8SvggqRPQRYAPwcD-5" value="Медицинские данные, снимки" style="edgeStyle=orthogonalEdgeStyle;rounded=0;orthogonalLoop=1;jettySize=auto;html=1;" parent="1" source="pXJq8SvggqRPQRYAPwcD-1" target="pXJq8SvggqRPQRYAPwcD-2" edge="1"><mxGeometry relative="1" as="geometry"/></mxCell><mxCell id="pXJq8SvggqRPQRYAPwcD-1" value="Клиентский интерфейс оператора" style="rounded=1;whiteSpace=wrap;html=1;" parent="1" vertex="1"><mxGeometry x="330" y="160" width="120" height="60" as="geometry"/></mxCell><mxCell id="pXJq8SvggqRPQRYAPwcD-4" style="edgeStyle=orthogonalEdgeStyle;rounded=0;orthogonalLoop=1;jettySize=auto;html=1;" parent="1" source="pXJq8SvggqRPQRYAPwcD-2" target="pXJq8SvggqRPQRYAPwcD-3" edge="1"><mxGeometry relative="1" as="geometry"/></mxCell><mxCell id="pXJq8SvggqRPQRYAPwcD-6" value="Данные" style="edgeLabel;html=1;align=center;verticalAlign=middle;resizable=0;points=[];" parent="pXJq8SvggqRPQRYAPwcD-4" vertex="1" connectable="0"><mxGeometry x="0.5563" y="4" relative="1" as="geometry"><mxPoint as="offset"/></mxGeometry></mxCell><mxCell id="pXJq8SvggqRPQRYAPwcD-8" style="edgeStyle=orthogonalEdgeStyle;rounded=0;orthogonalLoop=1;jettySize=auto;html=1;startArrow=classic;startFill=1;" parent="1" source="pXJq8SvggqRPQRYAPwcD-2" target="pXJq8SvggqRPQRYAPwcD-7" edge="1"><mxGeometry relative="1" as="geometry"/></mxCell><mxCell id="pXJq8SvggqRPQRYAPwcD-2" value="DWH" style="rounded=1;whiteSpace=wrap;html=1;" parent="1" vertex="1"><mxGeometry x="330" y="290" width="120" height="60" as="geometry"/></mxCell><mxCell id="pXJq8SvggqRPQRYAPwcD-3" value="BI-система" style="rounded=1;whiteSpace=wrap;html=1;" parent="1" vertex="1"><mxGeometry x="610" y="160" width="120" height="60" as="geometry"/></mxCell><mxCell id="pXJq8SvggqRPQRYAPwcD-10" value="Финансовые данные" style="edgeStyle=orthogonalEdgeStyle;rounded=0;orthogonalLoop=1;jettySize=auto;html=1;startArrow=classic;startFill=1;" parent="1" source="pXJq8SvggqRPQRYAPwcD-7" target="pXJq8SvggqRPQRYAPwcD-9" edge="1"><mxGeometry relative="1" as="geometry"/></mxCell><mxCell id="pXJq8SvggqRPQRYAPwcD-12" value="Внутренние финансовые данные&lt;br&gt;Управление клиниками" style="edgeStyle=orthogonalEdgeStyle;rounded=0;orthogonalLoop=1;jettySize=auto;html=1;startArrow=classic;startFill=1;" parent="1" source="pXJq8SvggqRPQRYAPwcD-7" target="pXJq8SvggqRPQRYAPwcD-11" edge="1"><mxGeometry relative="1" as="geometry"/></mxCell><mxCell id="pXJq8SvggqRPQRYAPwcD-14" value="Медицинские данные" style="edgeStyle=orthogonalEdgeStyle;rounded=0;orthogonalLoop=1;jettySize=auto;html=1;startArrow=classic;startFill=1;" parent="1" source="pXJq8SvggqRPQRYAPwcD-7" target="pXJq8SvggqRPQRYAPwcD-13" edge="1"><mxGeometry relative="1" as="geometry"/></mxCell><mxCell id="pXJq8SvggqRPQRYAPwcD-7" value="Интеграционная шина" style="rounded=1;whiteSpace=wrap;html=1;" parent="1" vertex="1"><mxGeometry x="330" y="410" width="120" height="60" as="geometry"/></mxCell><mxCell id="pXJq8SvggqRPQRYAPwcD-9" value="Финтех сервисы" style="rounded=1;whiteSpace=wrap;html=1;" parent="1" vertex="1"><mxGeometry x="610" y="410" width="120" height="60" as="geometry"/></mxCell><mxCell id="pXJq8SvggqRPQRYAPwcD-11" value="Внутренние сервисы" style="rounded=1;whiteSpace=wrap;html=1;" parent="1" vertex="1"><mxGeometry x="330" y="560" width="120" height="60" as="geometry"/></mxCell><mxCell id="pXJq8SvggqRPQRYAPwcD-13" value="ИИ сервисы" style="rounded=1;whiteSpace=wrap;html=1;" parent="1" vertex="1"><mxGeometry x="70" y="410" width="120" height="60" as="geometry"/></mxCell></root></mxGraphModel></diagram><diagram id="EBDF9jia3ptUSzVBB2LD" name="Data Flow To Be"><mxGraphModel dx="1137" dy="733" grid="1" gridSize="10" guides="1" tooltips="1" connect="1" arrows="1" fold="1" page="1" pageScale="1" pageWidth="850" pageHeight="1100" math="0" shadow="0"><root><mxCell id="0"/><mxCell id="1" parent="0"/></root></mxGraphModel></diagram></mxfile>